<?xml version="1.0" encoding="UTF-8" standalone="no"?>
<!-- Created with Inkscape (http://www.inkscape.org/) -->

<svg
   width="210mm"
   height="297mm"
   viewBox="0 0 210 297"
   version="1.1"
   id="svg8"
   inkscape:version="1.1.1 (3bf5ae0d25, 2021-09-20)"
   sodipodi:docname="icon.svg"
   inkscape:export-filename="/home/zen/aplikasi-android/organize-jobs/tambahan/icon.png"
   inkscape:export-xdpi="74.832954"
   inkscape:export-ydpi="74.832954"
   xmlns:inkscape="http://www.inkscape.org/namespaces/inkscape"
   xmlns:sodipodi="http://sodipodi.sourceforge.net/DTD/sodipodi-0.dtd"
   xmlns="http://www.w3.org/2000/svg"
   xmlns:svg="http://www.w3.org/2000/svg"
   xmlns:rdf="http://www.w3.org/1999/02/22-rdf-syntax-ns#"
   xmlns:cc="http://creativecommons.org/ns#"
   xmlns:dc="http://purl.org/dc/elements/1.1/">
  <defs
     id="defs2" />
  <sodipodi:namedview
     id="base"
     pagecolor="#ffffff"
     bordercolor="#666666"
     borderopacity="1.0"
     inkscape:pageopacity="0.0"
     inkscape:pageshadow="2"
     inkscape:zoom="0.16403309"
     inkscape:cx="-390.16518"
     inkscape:cy="746.80054"
     inkscape:document-units="mm"
     inkscape:current-layer="layer1"
     showgrid="false"
     inkscape:window-width="1330"
     inkscape:window-height="743"
     inkscape:window-x="36"
     inkscape:window-y="0"
     inkscape:window-maximized="1"
     inkscape:pagecheckerboard="0" />
  <metadata
     id="metadata5">
    <rdf:RDF>
      <cc:Work
         rdf:about="">
        <dc:format>image/svg+xml</dc:format>
        <dc:type
           rdf:resource="http://purl.org/dc/dcmitype/StillImage" />
        <dc:title />
      </cc:Work>
    </rdf:RDF>
  </metadata>
  <g
     inkscape:label="Layer 1"
     inkscape:groupmode="layer"
     id="layer1">
    <rect
       style="fill:#19aeff;fill-opacity:1;stroke-width:0.264583"
       id="rect815"
       width="339.42264"
       height="339.42264"
       x="-357.06705"
       y="-14.452381"
       inkscape:export-xdpi="74.832954"
       inkscape:export-ydpi="74.832954"
       inkscape:export-filename="/home/zen/aplikasi-android/kartu-rencana/tambahan/icon.png" />
    <g
       fill="none"
       fill-rule="evenodd"
       stroke="currentColor"
       stroke-linecap="round"
       stroke-linejoin="round"
       transform="matrix(6.6429774,0,0,6.6429774,-230.42878,91.722138)"
       id="g830"
       style="stroke:#ffffff">
      <path
         d="m 6.5,18.5 c 3,-2.502 4,-5.502 4,-9 0,-3.498 -1,-6.498 -4,-9 -3,2.502 -4,5.502 -4,9 0,3.498 1,6.498 4,9 z"
         id="path824"
         style="stroke:#ffffff" />
      <path
         d="m 10.062,13.362 a 5.65,5.65 0 0 1 1.171,0.902 c 1.12,1.119 1.69,2.574 1.714,4.365 -2.509,-0.11 -3.882,-0.765 -4.926,-1.647 m -5.115,-3.62 a 5.646,5.646 0 0 0 -1.172,0.902 c -1.119,1.119 -1.69,2.574 -1.713,4.365 2.508,-0.11 3.882,-0.765 4.926,-1.647"
         id="path826"
         style="stroke:#ffffff" />
      <circle
         cx="6.5"
         cy="6.5"
         r="2"
         id="circle828"
         style="stroke:#ffffff" />
    </g>
  </g>
</svg>
